<svg data-v-423bf9ae="" xmlns="http://www.w3.org/2000/svg" viewBox="0 0 470.2415253137566 60" class="font"><!----><!----><!----><g data-v-423bf9ae="" id="d13d0dfb-414b-4f33-98a0-282ab80c7563" fill="black" transform="matrix(9.66183568944126,0,0,9.66183568944126,-3.188404692996272,-23.86473514460299)"><path d="M0.33 3.12L0.33 8.59L1.92 8.59L1.92 3.12L0.33 3.12ZM2.60 8.59L4.11 8.59L4.11 5.87Q4.12 5.86 4.15 5.84Q4.17 5.81 4.18 5.81Q4.20 5.80 4.22 5.77Q4.25 5.75 4.26 5.74Q4.27 5.74 4.30 5.72Q4.32 5.70 4.34 5.70Q4.36 5.69 4.38 5.68Q4.41 5.67 4.43 5.66Q4.45 5.66 4.48 5.65Q4.50 5.65 4.53 5.65L4.53 5.65Q4.92 5.65 4.90 6.09L4.90 6.09L4.90 8.59L6.44 8.59L6.44 6.22Q6.44 6.19 6.45 6.13L6.45 6.13Q6.45 6.08 6.45 6.05L6.45 6.05Q6.45 5.23 6.19 4.88Q5.92 4.53 5.28 4.53L5.28 4.53Q5.10 4.53 4.91 4.60Q4.72 4.67 4.59 4.77Q4.45 4.87 4.34 4.97Q4.23 5.08 4.18 5.15L4.18 5.15L4.12 5.22L4.12 4.62L3.33 4.62L2.32 4.90L2.32 5.39L2.60 5.57L2.60 8.59ZM9.46 7.98L9.64 8.59L10.83 8.59L10.83 2.47L10.47 2.47L8.82 2.71L8.82 3.22L9.33 3.39L9.33 4.81Q9.16 4.71 8.92 4.65Q8.68 4.58 8.38 4.58L8.38 4.58Q7.87 4.58 7.51 4.86Q7.15 5.14 6.98 5.60Q6.81 6.06 6.81 6.65L6.81 6.65Q6.81 7.59 7.17 8.12Q7.53 8.64 8.30 8.64L8.30 8.64Q8.50 8.64 8.68 8.59Q8.87 8.53 8.99 8.46Q9.11 8.38 9.22 8.28Q9.32 8.18 9.37 8.12Q9.42 8.05 9.46 7.98L9.46 7.98ZM8.98 7.73L8.98 7.73Q8.75 7.73 8.59 7.50Q8.44 7.28 8.44 6.84L8.44 6.84L8.44 6.19Q8.44 5.24 9.06 5.23L9.06 5.23Q9.18 5.23 9.33 5.26L9.33 5.26L9.33 7.61Q9.24 7.67 9.16 7.70Q9.07 7.73 8.98 7.73ZM11.46 5.57L11.46 8.59L12.96 8.59L12.96 4.62L12.18 4.62L11.18 4.90L11.18 5.39L11.46 5.57ZM11.37 3.42L12.13 4.19L12.31 4.19L13.11 3.42L13.11 3.26L12.31 2.49L12.13 2.49L11.37 3.26L11.37 3.42ZM15.70 6.17L15.70 6.17L14.99 6.17L14.99 5.78Q14.99 5.61 15.01 5.50Q15.02 5.39 15.06 5.29Q15.10 5.18 15.19 5.14Q15.28 5.09 15.42 5.09L15.42 5.09Q15.58 5.09 15.64 5.33Q15.70 5.58 15.70 6.17ZM15.33 8.68L15.33 8.68Q15.61 8.68 15.92 8.62Q16.23 8.55 16.56 8.37Q16.89 8.18 17.07 7.90L17.07 7.90L16.79 7.42Q16.66 7.55 16.47 7.63Q16.27 7.72 16.08 7.77Q15.89 7.81 15.73 7.81L15.73 7.81Q15.56 7.81 15.45 7.78Q15.33 7.75 15.22 7.67Q15.11 7.58 15.05 7.41Q14.99 7.23 14.99 6.95L14.99 6.95L14.99 6.86L17.12 6.86L17.12 6.35Q17.12 5.39 16.73 4.96Q16.33 4.53 15.41 4.53L15.41 4.53Q14.45 4.53 13.92 5.06Q13.39 5.60 13.39 6.65L13.39 6.65Q13.39 7.08 13.49 7.44Q13.59 7.80 13.82 8.08Q14.04 8.37 14.42 8.53Q14.81 8.68 15.33 8.68ZM19.44 8.59L20.99 8.59L20.99 6.55L22.25 6.64L22.25 5.48L20.99 5.48L20.99 4.21L22.52 4.31L22.52 3.12L19.44 3.12L19.44 8.59ZM22.95 5.57L22.95 8.59L24.45 8.59L24.45 4.62L23.67 4.62L22.67 4.90L22.67 5.39L22.95 5.57ZM22.86 3.42L23.63 4.19L23.80 4.19L24.60 3.42L24.60 3.26L23.80 2.49L23.63 2.49L22.86 3.26L22.86 3.42ZM25.05 3.31L25.05 8.59L26.57 8.59L26.57 2.47L26.27 2.47L24.77 2.71L24.77 3.14L25.05 3.31ZM27.19 8.59L28.70 8.59L28.70 5.87Q28.70 5.86 28.73 5.84Q28.76 5.81 28.77 5.81Q28.78 5.80 28.80 5.77Q28.83 5.75 28.84 5.74Q28.86 5.74 28.88 5.72Q28.91 5.70 28.92 5.70Q28.94 5.69 28.97 5.68Q28.99 5.67 29.01 5.66Q29.04 5.66 29.06 5.65Q29.09 5.65 29.12 5.65L29.12 5.65Q29.50 5.65 29.49 6.09L29.49 6.09L29.49 8.59L31.03 8.59L31.03 6.36Q31.03 6.09 31.01 5.87L31.01 5.87Q31.25 5.65 31.38 5.65L31.38 5.65Q31.58 5.65 31.68 5.76Q31.78 5.88 31.78 6.09L31.78 6.09L31.78 8.59L33.30 8.59L33.30 6.22Q33.30 5.56 33.18 5.19Q33.07 4.83 32.83 4.68Q32.58 4.53 32.14 4.53L32.14 4.53Q31.75 4.53 31.42 4.77Q31.09 5.01 30.93 5.28L30.93 5.28Q30.83 4.88 30.58 4.70Q30.33 4.53 29.87 4.53L29.87 4.53Q29.68 4.53 29.50 4.60Q29.32 4.67 29.19 4.76Q29.06 4.85 28.94 4.97Q28.82 5.08 28.77 5.14Q28.73 5.19 28.70 5.22L28.70 5.22L28.70 4.62L27.91 4.62L26.91 4.90L26.91 5.39L27.19 5.57L27.19 8.59ZM35.70 8.59L37.25 8.59L37.25 6.36L38.45 6.36L38.45 8.59L39.99 8.59L39.99 3.12L38.45 3.12L38.45 5.28L37.25 5.28L37.25 3.12L35.70 3.12L35.70 8.59ZM42.95 7.97L42.95 7.97L43.10 8.59L44.39 8.59L44.39 4.62L42.61 4.62L42.61 5.16L42.86 5.32L42.86 7.52Q42.85 7.53 42.82 7.55Q42.80 7.57 42.79 7.58Q42.77 7.59 42.75 7.60Q42.73 7.62 42.71 7.63Q42.70 7.64 42.68 7.65Q42.65 7.66 42.64 7.67Q42.62 7.67 42.60 7.68Q42.57 7.69 42.55 7.69Q42.53 7.69 42.50 7.69L42.50 7.69Q42.30 7.69 42.23 7.59Q42.15 7.49 42.16 7.28L42.16 7.28L42.16 4.62L40.46 4.62L40.46 5.16L40.63 5.32L40.63 6.99Q40.63 7.90 40.91 8.29Q41.19 8.68 41.85 8.68L41.85 8.68Q42.06 8.68 42.27 8.59Q42.47 8.50 42.61 8.37Q42.75 8.25 42.84 8.14Q42.92 8.03 42.95 7.97ZM47.43 8.59L47.43 8.59Q47.81 8.59 48.12 8.43Q48.42 8.26 48.61 7.98Q48.80 7.70 48.90 7.32Q49.00 6.95 49.00 6.51L49.00 6.51Q49.00 5.58 48.63 5.05Q48.27 4.53 47.50 4.53L47.50 4.53Q47.32 4.53 47.16 4.57Q47.00 4.61 46.87 4.68Q46.75 4.75 46.66 4.83Q46.57 4.90 46.49 4.98L46.49 4.98L46.49 2.47L46.19 2.47L44.69 2.71L44.69 3.14L44.97 3.31L44.97 8.59L46.49 8.59L46.49 8.37Q46.90 8.59 47.43 8.59ZM46.74 7.94L46.74 7.94Q46.69 7.94 46.62 7.93Q46.56 7.92 46.49 7.91L46.49 7.91L46.49 5.48Q46.67 5.35 46.84 5.35L46.84 5.35Q47.07 5.35 47.22 5.57Q47.37 5.79 47.37 6.19L47.37 6.19L47.37 6.98Q47.37 7.94 46.74 7.94Z"></path></g><!----><!----></svg>